<svg id="Layer_1" data-name="Layer 1" xmlns="http://www.w3.org/2000/svg" width="245" height="72.59" viewBox="0 0 245 72.59"><title>Google Play badge logo - Brandlogos.net</title><path d="M497.43,420.3H270.57a9.1,9.1,0,0,1-9.07-9.07V356.78a9.1,9.1,0,0,1,9.07-9.07H497.43a9.1,9.1,0,0,1,9.07,9.07v54.44a9.1,9.1,0,0,1-9.07,9.07" transform="translate(-261.5 -347.7)" style="fill:#100f0d"/><path d="M497.43,349.16a7.63,7.63,0,0,1,7.62,7.62v54.44a7.63,7.63,0,0,1-7.62,7.62H270.57a7.63,7.63,0,0,1-7.62-7.62V356.78a7.63,7.63,0,0,1,7.62-7.62H497.43m0-1.45H270.57a9.1,9.1,0,0,0-9.07,9.07v54.44a9.1,9.1,0,0,0,9.07,9.07H497.43a9.1,9.1,0,0,0,9.07-9.07V356.78A9.1,9.1,0,0,0,497.43,347.7Z" transform="translate(-261.5 -347.7)" style="fill:#a2a2a1"/><path d="M400.05,364.52l-.06-2.09h.06l5.53,8.87H407V360.42h-1.4v6.37l.06,2.09h-.06l-5.28-8.46h-1.7V371.3h1.4Zm-11.94-1.77a4.19,4.19,0,0,1,5.94,0,4.64,4.64,0,0,1,0,6.22,4.2,4.2,0,0,1-5.94,0,4.68,4.68,0,0,1,0-6.22Zm7-.91a5.64,5.64,0,0,0-8,0,5.88,5.88,0,0,0,0,8.08,5.65,5.65,0,0,0,8,0,5.86,5.86,0,0,0,0-8.07Zm-14.16-.07v-1.34h-7.47v1.34h3v9.54h1.4v-9.54Zm-9.24-1.34h-1.4V371.3h1.4Zm-6.82,1.34v-1.34h-7.47v1.34h3v9.54h1.4v-9.54Zm-15.29-1.34V371.3h6.35V370H351v-3.45h4.47v-1.3H351v-3.45h4.95v-1.34Zm-2.1,5.06H342.2v1.3h3.95a3.61,3.61,0,0,1-1.25,2.5,4,4,0,0,1-2.7.91,4.1,4.1,0,0,1-3-1.23,4.6,4.6,0,0,1,0-6.22,4.1,4.1,0,0,1,3-1.23,4.23,4.23,0,0,1,1.71.34,3.26,3.26,0,0,1,1.29.95l1-1a4.48,4.48,0,0,0-1.74-1.2,5.92,5.92,0,0,0-2.26-.42,5.68,5.68,0,1,0,0,11.36,5.22,5.22,0,0,0,4-1.61,4.92,4.92,0,0,0,1.35-3.63A4.66,4.66,0,0,0,347.46,365.48Z" transform="translate(-261.5 -347.7)" style="fill:#fff;stroke:#fff;stroke-miterlimit:10;stroke-width:0.20000000298023224px"/><path d="M385.16,387.18a7.72,7.72,0,1,0,7.75,7.72,7.61,7.61,0,0,0-7.75-7.72m0,12.4a4.69,4.69,0,1,1,4.35-4.68A4.47,4.47,0,0,1,385.16,399.57Zm-16.9-12.4A7.72,7.72,0,1,0,376,394.9,7.61,7.61,0,0,0,368.25,387.18Zm0,12.4a4.69,4.69,0,1,1,4.35-4.68A4.47,4.47,0,0,1,368.25,399.57Zm-20.11-10v3.27H356a6.83,6.83,0,0,1-1.79,4.13,8,8,0,0,1-6.05,2.4,8.71,8.71,0,0,1,0-17.42,8.33,8.33,0,0,1,5.91,2.34l2.31-2.31a11.42,11.42,0,0,0-8.22-3.3,12,12,0,1,0,0,24,11,11,0,0,0,8.37-3.36,10.82,10.82,0,0,0,2.83-7.66,10.37,10.37,0,0,0-.18-2Zm82.23,2.54a7.17,7.17,0,0,0-6.61-4.91c-4,0-7.28,3.13-7.28,7.72a7.55,7.55,0,0,0,7.66,7.72,7.66,7.66,0,0,0,6.43-3.42l-2.63-1.75a4.42,4.42,0,0,1-3.8,2.13,3.92,3.92,0,0,1-3.74-2.34L430.72,393Zm-10.52,2.57a4.23,4.23,0,0,1,4-4.5,3,3,0,0,1,2.86,1.64Zm-8.39,7.49h3.39V379.46h-3.39Zm-5.56-13.24h-.11a5.35,5.35,0,0,0-4.06-1.73,7.73,7.73,0,0,0,0,15.44,5.29,5.29,0,0,0,4.06-1.75h.11V402c0,3-1.57,4.53-4.12,4.53a4.28,4.28,0,0,1-3.89-2.74L394.94,405a7.35,7.35,0,0,0,6.84,4.56c4,0,7.34-2.33,7.34-8V387.64H405.9ZM402,399.57a4.69,4.69,0,0,1,0-9.36c2.31,0,4.12,2,4.12,4.71S404.32,399.57,402,399.57Zm44.24-20.11h-8.11v22.69h3.38v-8.59h4.73a7.06,7.06,0,1,0,0-14.09Zm.09,10.93h-4.82v-7.78h4.82a3.89,3.89,0,1,1,0,7.78Zm20.93-3.26a6.35,6.35,0,0,0-6,3.48l3,1.25a3.2,3.2,0,0,1,3.09-1.67c1.75,0,3.53,1,3.56,2.92v.23a7.44,7.44,0,0,0-3.53-.88c-3.24,0-6.54,1.78-6.54,5.1,0,3,2.66,5,5.63,5a4.79,4.79,0,0,0,4.32-2.22h.11v1.75h3.28v-8.7C474.17,389.39,471.15,387.13,467.28,387.13Zm-.41,12.44c-1.11,0-2.66-.56-2.66-1.93,0-1.75,1.93-2.42,3.6-2.42a6,6,0,0,1,3.09.76A4.1,4.1,0,0,1,466.86,399.57Zm19.2-11.94-3.88,9.83h-.12l-4-9.83h-3.65l6,13.75L477,409h3.53l9.31-21.39Zm-30.5,14.51H459V379.46h-3.38Z" transform="translate(-261.5 -347.7)" style="fill:#fff"/><path d="M299.1,383l-19.33,20.5s0,0,0,0a5.21,5.21,0,0,0,7.69,3.15l.06,0L309.28,394,299.1,383" transform="translate(-261.5 -347.7)" style="fill:#eb3131"/><path d="M318.64,379.46h0L309.24,374l-10.58,9.42L309.27,394l9.34-5.39a5.23,5.23,0,0,0,0-9.18" transform="translate(-261.5 -347.7)" style="fill:#f6b60b"/><path d="M279.78,364.54a5.28,5.28,0,0,0-.18,1.34v36.24a5.23,5.23,0,0,0,.18,1.34l20-20-20-18.94" transform="translate(-261.5 -347.7)" style="fill:#5778c5"/><path d="M299.24,384l10-10-21.72-12.6a5.23,5.23,0,0,0-7.74,3.13h0L299.24,384" transform="translate(-261.5 -347.7)" style="fill:#3bad49"/></svg>